Coordinates
version=1
nRows=11
nColumns=40
inDegrees=yes

Units are S.I. units (second, meters, Newtons, ...)
Angles are in degrees.

endheader
time	pelvis_tilt	pelvis_list	pelvis_rotation	pelvis_tx	pelvis_ty	pelvis_tz	hip_flexion_r	hip_adduction_r	hip_rotation_r	knee_angle_r	knee_angle_r_beta	ankle_angle_r	subtalar_angle_r	mtp_angle_r	hip_flexion_l	hip_adduction_l	hip_rotation_l	knee_angle_l	knee_angle_l_beta	ankle_angle_l	subtalar_angle_l	mtp_angle_l	lumbar_extension	lumbar_bending	lumbar_rotation	arm_flex_r	arm_add_r	arm_rot_r	elbow_flex_r	pro_sup_r	wrist_flex_r	wrist_dev_r	arm_flex_l	arm_add_l	arm_rot_l	elbow_flex_l	pro_sup_l	wrist_flex_l	wrist_dev_l
      2.42000000	     -3.05580173	     -2.33833982	      2.38275004	     -0.04373094	      0.89145816	     -1.05293648	     21.29404021	     -3.37561235	    -12.32800886	    -59.84645043	     -1.04451761	      0.72484849	    -16.79909457	     18.20215345	     16.45176182	      1.47209502	      6.48461036	    -30.61514596	     -0.53433510	     12.87872285	     11.31404447	      2.12745618	     -2.57344441	      0.09954242	     -4.70724248	     -0.24586692	     -7.06322197	     -9.89930986	     28.83577431	     89.95437384	      0.00000000	      0.00000000	      1.69697865	      9.87901993	     18.43825856	     32.57717877	     89.95437384	      0.00000000	      0.00000000
      2.43000000	     -3.09533472	     -2.30813533	      2.46846390	     -0.03951174	      0.89143080	     -1.05348075	     22.27106591	     -3.50620352	    -12.49132701	    -59.31371679	     -1.03521965	      0.84894989	    -16.33766963	     17.84431412	     16.23331648	      1.44046090	      6.58869789	    -30.67568412	     -0.53539169	     12.74544853	     11.01325500	      2.07318895	     -2.72618711	      0.02932604	     -4.77678452	     -0.38345797	     -7.00941250	     -9.82271232	     29.00547678	     89.95437384	      0.00000000	      0.00000000	      2.17495230	     10.01647371	     18.37819063	     33.09596427	     89.95437384	      0.00000000	      0.00000000
      2.44000000	     -2.85540436	     -2.60537723	      2.74326454	     -0.03392767	      0.89200308	     -1.05446928	     22.42881343	     -3.25020897	    -12.99774510	    -58.02946940	     -1.01280530	      1.81837755	    -16.71652731	     18.18953494	     15.36669755	      1.68299616	      6.43970403	    -30.25440462	     -0.52803897	     13.32883717	     11.04928192	      1.84573613	     -2.94226157	      0.39980494	     -5.12669643	     -0.38673993	     -6.98787370	     -9.98269687	     28.66078403	     89.95437384	      0.00000000	      0.00000000	      2.45494779	     10.04660097	     18.34532014	     33.46364903	     89.95437384	      0.00000000	      0.00000000
      2.45000000	     -2.97076210	     -2.56204429	      2.79189645	     -0.02904782	      0.89186788	     -1.05490671	     23.26118981	     -3.38273103	    -13.22286737	    -57.04738074	     -0.99566462	      2.18058786	    -16.49751167	     17.98026108	     15.06918087	      1.64763976	      6.63185347	    -30.13186542	     -0.52590026	     13.41080660	     10.84074465	      1.76555244	     -2.86212277	      0.32161885	     -5.18960724	     -0.54826614	     -6.94625127	     -9.90845382	     28.64255253	     89.95437384	      0.00000000	      0.00000000	      2.82339882	     10.15674596	     18.27936804	     33.83553694	     89.95437384	      0.00000000	      0.00000000
      2.46000000	     -2.79617027	     -2.77912878	      3.01447114	     -0.02436857	      0.89218313	     -1.05533731	     23.63790466	     -3.12831675	    -13.44667680	    -55.71984375	     -0.97249473	      2.82277574	    -16.42171652	     18.05879960	     14.45683115	      1.85482360	      6.40695230	    -29.94539813	     -0.52264579	     13.73242871	     10.60856862	      1.52977368	     -3.15715144	      0.55070216	     -5.45600295	     -0.47162916	     -6.87900037	     -9.95755058	     28.39459984	     89.95437384	      0.00000000	      0.00000000	      3.20501248	     10.29209886	     18.15734522	     34.30701085	     89.95437384	      0.00000000	      0.00000000
      2.47000000	     -2.93819002	     -2.71810981	      3.10143791	     -0.01968153	      0.89189855	     -1.05577723	     24.41809963	     -3.29409711	    -13.67622289	    -54.53541343	     -0.95182252	      3.15243467	    -16.17463245	     17.85330689	     14.20637788	      1.80612914	      6.62427470	    -29.82055042	     -0.52046679	     13.83206551	     10.41655784	      1.44385984	     -3.08101863	      0.46406750	     -5.56826777	     -0.60551340	     -6.84291093	     -9.89861970	     28.37731351	     89.95437384	      0.00000000	      0.00000000	      3.56122695	     10.39101351	     18.07718650	     34.71001455	     89.95437384	      0.00000000	      0.00000000
      2.48000000	     -2.69221177	     -3.04687940	      3.29776487	     -0.01478197	      0.89226090	     -1.05590446	     24.54727501	     -2.90266505	    -13.95454472	    -52.91878686	     -0.92360707	      3.72625563	    -15.90597542	     17.94303632	     13.52616412	      2.19237334	      6.51063588	    -29.67562306	     -0.51793733	     14.13061384	     10.12592632	      1.11223298	     -3.42360480	      0.81538762	     -5.80644748	     -0.52341622	     -6.78234958	     -9.98933573	     28.13197698	     89.95437384	      0.00000000	      0.00000000	      3.88132127	     10.52345298	     17.95687205	     35.23486177	     89.95437384	      0.00000000	      0.00000000
      2.49000000	     -2.89961390	     -2.90876122	      3.32537095	     -0.01010866	      0.89177402	     -1.05638159	     25.34182710	     -3.18998768	    -14.17871503	    -51.54808711	     -0.89968384	      4.01808999	    -15.59837151	     17.70440751	     13.36353570	      2.05192643	      6.73088507	    -29.61758618	     -0.51692440	     14.19878355	      9.93492610	      1.03461961	     -3.26170850	      0.66795546	     -5.84348075	     -0.69411860	     -6.79654490	     -9.95123190	     28.13536576	     89.95437384	      0.00000000	      0.00000000	      4.23361984	     10.57765447	     17.88081888	     35.66952093	     89.95437384	      0.00000000	      0.00000000
      2.50000000	     -3.09043639	     -2.82535745	      3.36811183	     -0.00549483	      0.89134232	     -1.05666587	     26.04851284	     -3.36004927	    -14.37944920	    -50.05471432	     -0.87361957	      4.33447344	    -15.29763406	     17.48720908	     13.18767418	      1.96138737	      6.84802650	    -29.52407195	     -0.51529226	     14.34741850	      9.78626056	      0.95617953	     -3.13526450	      0.56789983	     -5.91756310	     -0.80156645	     -6.78550783	     -9.94690235	     28.08195405	     89.95437384	      0.00000000	      0.00000000	      4.54978706	     10.65172969	     17.79797769	     36.10799060	     89.95437384	      0.00000000	      0.00000000
      2.51000000	     -2.73278745	     -3.26454131	      3.63018206	     -0.00050552	      0.89186258	     -1.05665080	     25.83015683	     -2.82968074	    -14.73809778	    -48.00067530	     -0.83776983	      4.81856382	    -15.06400044	     17.52814229	     12.41522534	      2.44819136	      6.47930461	    -29.40747583	     -0.51325728	     14.75417750	      9.75755420	      0.63933437	     -3.58779988	      1.05860234	     -6.26521055	     -0.63529725	     -6.68059606	    -10.21523992	     27.76492931	     89.95437384	      0.00000000	      0.00000000	      4.79835686	     10.77634565	     17.71212313	     36.67980536	     89.95437384	      0.00000000	      0.00000000
      2.52000000	     -3.00971646	     -3.09434247	      3.61542032	      0.00410638	      0.89121929	     -1.05687814	     26.57612120	     -3.17466865	    -15.05954128	    -46.41289279	     -0.81005779	      5.00755320	    -14.73760297	     17.31532643	     12.31922514	      2.27553942	      6.68999940	    -29.31438482	     -0.51163253	     14.80821816	      9.57415015	      0.56813613	     -3.36417713	      0.87521777	     -6.25735272	     -0.79721981	     -6.70144288	    -10.19247667	     27.78952707	     89.95437384	      0.00000000	      0.00000000	      5.10168480	     10.82355637	     17.64584421	     37.14703124	     89.95437384	      0.00000000	      0.00000000
